<svg width="200" height="200" viewBox="0 0 200 200" fill="none" xmlns="http://www.w3.org/2000/svg">
<circle cx="100" cy="100" r="100" fill="white"/>
<path d="M97.5871 150.073V171.977C69.912 170.718 47.8482 147.823 47.8482 119.779V115.416H52.225V119.779H56.6019V115.416H60.9563V119.779H65.3107V115.416H69.6875V119.779C69.6875 135.746 81.9652 148.836 97.5871 150.073ZM147.797 119.801H143.421V115.438H139.066V119.801H134.712V115.438H130.335V119.801C130.335 135.769 118.057 148.858 102.435 150.095V172C130.11 170.741 152.152 147.846 152.152 119.801V115.438H147.797V119.801ZM61.2257 84.8973C54.7838 84.8973 49.397 89.3506 47.938 95.3553H74.5133C73.0544 89.3506 67.6675 84.8973 61.2257 84.8973ZM152.062 95.3553C150.603 89.3506 145.216 84.8973 138.774 84.8973C132.333 84.8973 126.946 89.3506 125.487 95.3553H152.062ZM58.7567 99.426C51.1252 99.426 44.7283 104.711 43 111.818H74.5133C72.785 104.711 66.3881 99.426 58.7567 99.426ZM125.487 111.818H157C155.272 104.711 148.875 99.426 141.243 99.426C133.612 99.426 127.215 104.711 125.487 111.818ZM100.011 145.305C85.938 145.305 74.5357 133.88 74.5357 119.779V80.8496L70.8996 77.2285V73.5855H74.5357V58.8772L78.1719 36.9949L81.808 58.8772V73.5855H89.0803V58.8547L85.4442 55.2336V51.5906H89.0803V36.8823L92.7165 15L96.3526 36.8823V51.5906H103.625V36.8823L107.261 15L110.897 36.8823V51.5906H114.533V55.2336L110.897 58.8547V73.5855H118.17V58.8772L121.806 36.9949L125.442 58.8772V73.5855H129.078V77.2285L125.442 80.8496V120.094C125.262 134.037 113.927 145.282 99.9888 145.282M113.838 111.862L106.947 123.827H120.728L113.838 111.862ZM110.92 96.7268C113.658 98.0312 116.105 99.7856 118.192 101.945V80.8721L114.556 77.251L110.92 80.8721V96.7268ZM100.034 111.818H113.815L106.924 99.8757L100.034 111.818ZM96.3526 73.608H103.625V58.8772L99.9888 55.2562L96.3526 58.8772V73.608ZM96.3526 94.5454C97.5422 94.3655 98.7543 94.2758 99.9888 94.2758C101.223 94.2758 102.435 94.3655 103.625 94.5454V80.8721L99.9888 77.251L96.3526 80.8721V94.5454ZM86.2073 111.818H99.9888L93.0981 99.8757L86.2073 111.818ZM81.808 101.945C83.8955 99.8081 86.3644 98.0312 89.0803 96.7268V80.8721L85.4442 77.251L81.808 80.8721V101.945ZM93.0532 123.827L86.1625 111.862L79.2717 123.827H93.0532ZM99.9663 135.814L93.0756 123.872L86.1849 135.814H99.9663ZM106.88 123.827L99.9888 111.862L93.0981 123.827H106.88ZM113.815 135.814L106.924 123.872L100.034 135.814H113.815Z" fill="#00438C"/>
</svg>
